<?xml version="1.0" encoding="utf-8"?>
<!-- Generator: Adobe Illustrator 19.0.0, SVG Export Plug-In . SVG Version: 6.00 Build 0)  -->
<svg version="1.1" id="Layer_1" xmlns="http://www.w3.org/2000/svg" xmlns:xlink="http://www.w3.org/1999/xlink" x="0px" y="0px"
	 viewBox="0 0 135.6 133.6" style="enable-background:new 0 0 135.6 133.6;" xml:space="preserve">
<style type="text/css">
	.st0{fill-rule:evenodd;clip-rule:evenodd;fill:#231F20;}
	.st1{fill:url(#SVGID_1_);}
	.st2{fill:none;stroke:#939598;stroke-width:0.3445;stroke-linejoin:round;}
	.st3{fill-rule:evenodd;clip-rule:evenodd;fill:#FFFFFF;}
	.st4{fill:none;stroke:#939598;stroke-width:0.3434;stroke-linejoin:round;}
	.st5{fill:url(#SVGID_2_);}
	.st6{fill:none;stroke:#939598;stroke-width:0.3589;stroke-linejoin:round;}
	.st7{fill-rule:evenodd;clip-rule:evenodd;fill:#808285;}
	.st8{clip-path:url(#SVGID_4_);fill:url(#SVGID_5_);}
	.st9{clip-path:url(#SVGID_7_);fill:url(#SVGID_8_);}
	.st10{fill-rule:evenodd;clip-rule:evenodd;fill:#EE2843;}
	.st11{fill:url(#SVGID_9_);}
	.st12{fill:none;stroke:#808285;stroke-width:0.3647;stroke-linejoin:round;}
	.st13{fill-rule:evenodd;clip-rule:evenodd;fill:#894B9D;}
	.st14{clip-path:url(#SVGID_11_);fill:url(#SVGID_12_);}
	.st15{clip-path:url(#SVGID_14_);fill:url(#SVGID_15_);}
	.st16{clip-path:url(#SVGID_17_);fill:url(#SVGID_18_);}
	.st17{clip-path:url(#SVGID_20_);fill:url(#SVGID_21_);}
	.st18{clip-path:url(#SVGID_23_);fill:url(#SVGID_24_);}
	.st19{clip-path:url(#SVGID_26_);fill:url(#SVGID_27_);}
	.st20{fill-rule:evenodd;clip-rule:evenodd;fill:#1C9741;}
	.st21{clip-path:url(#SVGID_29_);fill:url(#SVGID_30_);}
	.st22{clip-path:url(#SVGID_32_);fill:url(#SVGID_33_);}
	.st23{clip-path:url(#SVGID_35_);fill:url(#SVGID_36_);}
	.st24{fill-rule:evenodd;clip-rule:evenodd;fill:#BBBDC0;}
</style>
<path class="st0" d="M68.9,127.4c0-0.2-0.1-0.3-0.2-0.3c-0.1,0-0.1,0.1-0.2,0.1c-0.5,0.4-0.9,1.2-1.2,2.3c0.1,0,0.3,0,0.6,0
	c0.4,0,0.7-0.1,0.9-0.4c0.1-0.2,0.2-0.4,0.2-0.8C69,128.6,69,128.3,68.9,127.4z M70,130.8c-1.2,1.7-2,2.6-2.5,2.6
	c-0.2,0-0.6-0.1-1-0.5c-0.4-0.2-0.6-0.4-0.6-0.7c0-0.1,0-0.1,0-0.2c0.1-0.7,0.2-1.5,0.4-2.4c-0.2-0.1-0.3-0.2-0.3-0.3
	c0-0.1,0-0.1,0.2-0.1c0.1,0,0.2,0,0.3,0.1c0.4-1.1,0.8-1.8,1.1-2.3c0.2-0.3,0.4-0.5,0.6-0.5c0.1,0,0.3,0.1,0.7,0.2
	c0-0.2,0-0.3,0.1-0.3c0,0,0.1,0,0.4,0c0.2,0,0.3,0,0.3,0.1c0,0,0,0.1,0,0.1c0,0.1,0,0.1,0,0.2c0,0.2,0,0.4,0.1,0.7
	c0,0.3,0,0.5,0,0.6c0,0.6-0.1,1.1-0.4,1.4c-0.3,0.3-0.7,0.4-1.1,0.4c-0.2,0-0.6,0-1.1-0.1c-0.1,0.2-0.2,0.5-0.2,1
	c-0.1,0.6-0.1,1.1-0.1,1.6c0,0.3,0.1,0.4,0.3,0.4c0.1,0,0.1,0,0.2-0.1c0.6-0.3,1.4-1,2.4-2.1c0.1-0.1,0.1-0.1,0.2-0.1
	c0.1,0,0.2,0,0.2,0.1C70.1,130.7,70.1,130.7,70,130.8z M69.2,121.1c0.1,0.1,0.1,0.1,0.1,0.2c0,0.1-0.1,0.1-0.2,0.2
	c-0.1,0-0.1,0-0.2,0c-0.2-0.1-0.4-0.2-0.5-0.2c-0.3,0-0.7,0.3-1.1,1c-1.4,2.3-2.4,5.3-3,9c0,0.1,0,0.2-0.1,0.4
	c0.1-0.1,0.3-0.3,0.5-0.6c0.1-0.2,0.2-0.2,0.3-0.2c0.1,0,0.1,0.1,0,0.2c-0.5,0.7-0.8,1.5-1,2.3c-0.1,0.2-0.1,0.3-0.2,0.3
	c0,0-0.1,0-0.2-0.1c-0.3-0.2-0.4-0.3-0.5-0.3c-0.1-0.1-0.2-0.2-0.2-0.4c0-0.1,0-0.2,0-0.3c0.6-3.3,1.3-6.2,2.3-8.5
	c0.7-1.8,1.4-2.9,1.9-3.5c0.2-0.1,0.3-0.2,0.5-0.2c0.1,0,0.3,0.1,0.6,0.3C68.7,120.7,69,120.9,69.2,121.1z M62.4,128
	c-0.1,0.7-0.5,1.9-1.1,3.5c0.2-0.1,0.4-0.4,0.7-0.7c0,0,0.1-0.1,0.1-0.1c0.1,0,0.1,0.1,0,0.2c0,0.1-0.3,0.4-0.7,1.1
	c-0.3,0.5-0.6,0.9-0.7,1.3c-0.1,0.1-0.1,0.2-0.3,0.2c-0.1,0-0.3-0.1-0.5-0.2c-0.1-0.1-0.2-0.1-0.2-0.2c0,0,0-0.1,0.1-0.2
	c0.3-0.5,0.6-1.3,1-2.5c0.4-1.1,0.6-2,0.6-2.5c0-0.2,0-0.4-0.1-0.4c0,0-0.1,0.1-0.3,0.2l-0.5,0.4c-0.2,0.1-0.3,0.2-0.3,0
	c0,0,0-0.1,0.1-0.2c0.3-0.3,0.5-0.7,0.8-1c0.1-0.1,0.2-0.1,0.3-0.1c0.1,0,0.2,0.1,0.4,0.2c0.2,0.1,0.4,0.1,0.4,0.1
	c0.1,0.1,0.2,0.2,0.2,0.4C62.4,127.8,62.4,127.9,62.4,128z M63.6,124.6c0.1,0.1,0.1,0.1,0.1,0.2c0,0.2-0.2,0.4-0.7,0.7
	c-0.3,0.2-0.6,0.3-0.9,0.2c-0.2,0-0.3-0.1-0.4-0.2c0,0-0.1-0.1-0.1-0.1c0,0,0-0.1,0-0.1c0,0,0,0,0.1,0c0.5-0.4,0.8-0.7,1-0.9
	c0.1-0.1,0.2-0.2,0.3-0.2C63.1,124.3,63.3,124.4,63.6,124.6z M59.4,130.8c-0.4,0.5-1,1.3-1.8,2.5c-0.1,0.1-0.1,0.2-0.1,0.2
	c-0.1,0-0.2,0-0.3-0.1c-0.4-0.1-0.5-0.3-0.5-0.4c0-0.1,0-0.1,0.1-0.2c0.5-0.9,0.9-1.8,1.3-2.8c0.4-1,0.6-1.8,0.6-2.3
	c0-0.2,0-0.3-0.2-0.3c-0.1,0-0.2,0-0.3,0.1c-0.5,0.3-1.1,1-1.9,1.9c-1,1.2-1.7,2.3-2.1,3.4C54,133,54,133,54,133c0,0-0.1,0-0.2-0.1
	c-0.2-0.1-0.3-0.2-0.5-0.3c-0.1-0.1-0.1-0.1-0.1-0.2c0,0,0.1-0.1,0.1-0.3c0.8-1.7,1.3-3.3,1.5-4.9c0-0.2,0-0.2-0.1-0.3
	c-0.1,0-0.2,0-0.3,0.1c-0.6,0.4-1.3,1.2-2.1,2.3c-0.8,1-1.3,2-1.7,3c-0.1,0.2-0.2,0.4-0.3,0.3c-0.1,0-0.3-0.1-0.6-0.4
	c-0.1-0.1-0.1-0.1-0.1-0.2s0.1-0.1,0.2-0.2c0.3-0.4,0.6-1.2,0.9-2.3c0.4-1.2,0.6-2.1,0.6-2.7c-0.1,0.1-0.2,0.2-0.4,0.4
	c-0.2,0.2-0.4,0.3-0.5,0.4c-0.1,0.1-0.1,0.1-0.2,0.1c-0.1,0-0.1-0.1-0.1-0.2c0-0.1,0-0.2,0.1-0.2c0.3-0.3,0.6-0.6,1-1
	c0.1-0.1,0.2-0.2,0.3-0.2c0.1,0,0.2,0.1,0.3,0.3c0.1,0.1,0.3,0.1,0.4,0.2c0.1,0.1,0.2,0.2,0.1,0.3c0,0,0,0.1,0,0.1
	c-0.2,1-0.5,1.9-0.9,2.8c1.1-1.6,2-2.7,2.9-3.3c0.1-0.1,0.2-0.1,0.3-0.1c0.1,0,0.3,0.1,0.5,0.3c0.2,0.1,0.3,0.2,0.4,0.3
	c0.1,0.1,0.1,0.3,0.1,0.4c-0.1,1.1-0.3,2-0.6,2.8c1.2-1.5,2.2-2.6,3.1-3.3c0.1-0.1,0.2-0.1,0.4-0.1c0.2,0,0.3,0.1,0.6,0.4
	c0.4,0.1,0.6,0.4,0.5,0.8c-0.2,1.3-0.6,2.4-1.1,3.6c0.3-0.3,0.5-0.5,0.7-0.7c0.1-0.1,0.2-0.2,0.3-0.1c0.1,0,0.1,0.1,0.1,0.1
	C59.4,130.7,59.4,130.8,59.4,130.8z M48.9,129.8c-0.2,0.9-0.9,1.6-1.9,1.9c-0.4,0.4-0.8,0.5-1.2,0.4c-0.8-0.2-1.5-0.7-2.3-1.6
	c-0.7-0.8-1.1-1.5-1.3-2.1c-0.2-0.6-0.2-0.9-0.2-1c0-0.2,0.2-0.3,0.5-0.5c0.3-0.1,0.4-0.2,0.6-0.2c0.1,0,0.2,0.1,0.1,0.3
	c0,0.1,0,0.1-0.1,0.2c0.1,0.8,0.5,1.6,1.2,2.5c0.7,0.8,1.4,1.3,2.1,1.5c0.6,0.1,1-0.2,1.3-1.1c0.1-0.5,0-1.5-0.4-3.1
	c-0.4-1.6-0.5-2.7-0.4-3.3c0.1-0.4,0.3-0.7,0.6-1c0.3-0.2,0.7-0.4,1.2-0.7c0.1,0,0.2-0.1,0.3,0c0.1,0,0.2,0.1,0.2,0.2
	c0,0.1-0.1,0.2-0.2,0.2c-0.5,0.3-0.8,0.7-0.9,1.2c-0.1,0.6,0,1.7,0.4,3.2C48.8,128.5,49,129.5,48.9,129.8z M52.9,123.3
	c-0.4,0.7-0.8,1.2-1.3,1.6c-0.2,0.2-0.4,0.3-0.5,0.2c-0.1,0-0.3-0.2-0.6-0.5c-0.1-0.1-0.1-0.2-0.1-0.2c0-0.1,0.1-0.2,0.3-0.2
	c0.1,0,0.4-0.2,0.6-0.6c0.3-0.4,0.4-0.7,0.5-0.9c0.1-0.2,0-0.4-0.2-0.4c-0.1,0-0.2,0-0.3,0c-0.2,0-0.7,0-1.4,0.1c-0.1,0-0.2,0-0.2,0
	c-0.2,0-0.2-0.1-0.2-0.2c0-0.1,0.1-0.2,0.3-0.2c0.6-0.1,1.3-0.3,1.9-0.3c0.2,0,0.3,0,0.4,0c0.1,0,0.2,0.2,0.3,0.6
	c0.3,0.2,0.4,0.3,0.5,0.3c0.1,0.1,0.1,0.2,0.1,0.3C53,123.1,53,123.2,52.9,123.3z M42.2,120.1c0.1,0.1,0.2,0.2,0.1,0.3
	c0,0.1-0.1,0.1-0.2,0c0,0,0,0-0.1,0c0,0-0.1,0-0.1,0c-0.2-0.1-0.5,0.1-0.9,0.4c-0.4,0.3-1,1-1.8,2.1c-0.1,0.1-0.1,0.2-0.1,0.2
	c0,0,0.1,0.1,0.2,0.1c0.3,0.1,0.7,0.3,1.2,0.4c0.2,0,0.2,0.1,0.2,0.3c0,0.1-0.1,0.2-0.3,0.1c-0.1,0-0.7-0.2-1.7-0.4
	c-1.2,1.5-2.1,2.9-2.6,4.1c0,0.1,0,0.1-0.1,0.2c-0.1,0.2,0,0.3,0,0.3c0.1,0,0.6-0.1,1.5-0.6c0.1-0.1,0.2-0.1,0.3,0
	c0.1,0,0.1,0.1,0.1,0.1c0,0.1-0.1,0.1-0.1,0.2c-0.6,0.4-1.1,0.7-1.6,1c-0.2,0.1-0.4,0.1-0.5,0.1c-0.1,0-0.2-0.2-0.4-0.4
	c-0.3-0.2-0.3-0.4-0.3-0.6c0,0,0-0.1,0.1-0.1c0.6-1.2,1.5-2.7,2.7-4.3c-0.3-0.1-0.5-0.2-0.7-0.3c-0.1,0-0.1-0.1-0.1-0.2
	c0-0.1,0.1-0.2,0.2-0.2c0.1,0,0.3,0,0.6,0c0.2,0,0.4,0,0.6-0.1c1.1-1.5,1.9-2.4,2.3-2.8c0.3-0.2,0.5-0.3,0.7-0.2
	C41.7,119.6,41.9,119.8,42.2,120.1z M36.5,122.6c-0.3,0.8-0.7,1.3-1.1,1.7c-0.2,0.2-0.3,0.1-0.5,0c-0.2-0.3-0.3-0.4-0.3-0.5
	c0,0,0.1-0.1,0.2-0.1c0.4-0.4,0.6-0.7,0.7-1c0.1-0.2,0-0.4-0.2-0.5c0,0-0.1,0-0.1-0.1c0,0-0.1-0.1-0.1-0.1c-0.2-0.1-0.4,0-0.8,0.2
	c-0.4,0.3-0.9,0.6-1.4,1.2c-0.4,0.4-0.7,0.8-1,1.2c-0.2,0.3-0.3,0.5-0.4,0.7c-0.3,0.7-0.2,1.2,0.3,1.4c0.4,0.2,1.2-0.1,2.4-0.8
	c0.1-0.1,0.2-0.1,0.3-0.1c0.1,0,0.1,0.1,0,0.2c0,0,0,0.1-0.1,0.1c-0.5,0.5-1.1,0.9-1.7,1.3c-0.1,0.1-0.4,0.1-0.6,0
	c-0.2-0.1-0.3-0.2-0.5-0.3c-0.4-0.2-0.7-0.5-0.9-0.9c-0.2-0.4-0.2-0.8,0-1.3c0.2-0.5,0.7-1.1,1.4-1.9c0.8-0.8,1.4-1.4,2-1.7
	c0.3-0.1,0.5-0.2,0.6-0.1c0.1,0.1,0.3,0.3,0.6,0.6c0.2,0,0.4,0.1,0.6,0.1C36.5,122.1,36.6,122.3,36.5,122.6z M31.7,120.6
	c0.1-0.2,0.1-0.3,0-0.3c-0.1,0-0.1,0-0.3,0c-0.6,0.1-1.4,0.6-2.2,1.3c0.1,0.1,0.2,0.2,0.5,0.3c0.4,0.2,0.7,0.3,1,0.2
	c0.2-0.1,0.4-0.3,0.6-0.6C31.1,121.7,31.2,121.4,31.7,120.6z M30.9,124.1c-1.9,0.9-3.1,1.2-3.5,0.9c-0.2-0.1-0.4-0.4-0.6-0.9
	c-0.3-0.3-0.3-0.7-0.2-0.9c0-0.1,0.1-0.1,0.1-0.2c0.4-0.6,1-1.2,1.6-1.9c-0.1-0.2-0.2-0.3-0.1-0.4c0-0.1,0.1-0.1,0.2,0
	c0.1,0,0.1,0.1,0.2,0.2c0.9-0.7,1.6-1.2,2.1-1.4c0.4-0.1,0.6-0.2,0.8-0.1c0.1,0,0.2,0.2,0.5,0.5c0.1-0.2,0.1-0.2,0.3-0.2
	c0,0,0.1,0.1,0.3,0.2c0.2,0.1,0.3,0.2,0.2,0.3c0,0,0,0-0.1,0.1c-0.1,0.1-0.1,0.1-0.1,0.2c-0.1,0.2-0.2,0.4-0.3,0.6
	c-0.1,0.2-0.2,0.4-0.3,0.5c-0.3,0.6-0.7,0.9-1.1,1c-0.4,0.1-0.8,0-1.1-0.2c-0.2-0.1-0.5-0.3-0.9-0.7c-0.2,0.1-0.4,0.3-0.7,0.7
	c-0.4,0.5-0.7,0.9-0.9,1.3c-0.1,0.2-0.1,0.4,0,0.5c0.1,0,0.1,0.1,0.2,0.1c0.6,0.1,1.7-0.1,3.2-0.6c0.1,0,0.2,0,0.2,0
	c0.1,0,0.1,0.1,0.1,0.2C31,124,30.9,124.1,30.9,124.1z M34.4,115.4c0,0.1,0,0.2,0,0.2c-0.1,0.1-0.1,0.1-0.2,0
	c-0.1,0-0.1-0.1-0.1-0.1c-0.2-0.3-0.4-0.5-0.6-0.6c-0.1-0.1-0.3-0.1-0.5-0.1c-0.6,0-2.2,1.1-4.8,3.3c0.7,0.5,1.1,0.9,1.3,1
	c0.1,0.1,0.1,0.1,0.1,0.2c-0.1,0.1-0.1,0.1-0.3,0.1c-0.6-0.2-1.2-0.5-1.7-0.8c-1.7,1.5-3.2,2.9-4.4,4.3c-1,1.1-1.7,1.9-2,2.5
	c0,0-0.1,0.1-0.1,0.2c0,0.1-0.1,0.2-0.1,0.2c0,0.1-0.1,0.1-0.1,0.1c-0.1,0-0.2-0.2-0.4-0.5c-0.2-0.4-0.2-0.6,0-0.9
	c1.6-1.8,3.7-3.9,6.4-6.3c-0.4-0.2-0.6-0.3-0.7-0.4c-0.1-0.1-0.1-0.2-0.1-0.3c0-0.1,0-0.2,0-0.2c0-0.1,0.1-0.1,0.3,0
	c0.2,0.1,0.5,0.1,0.7,0.2c0.2,0.1,0.4,0,0.5,0c2-1.7,3.4-2.8,4.2-3.3c0.7-0.4,1.2-0.6,1.5-0.4C33.7,113.9,34,114.5,34.4,115.4z
	 M25.9,117.2c-0.4,0.6-0.8,1.1-1.3,1.5c-0.2,0.1-0.3,0.2-0.4,0.1c-0.1,0-0.1-0.2-0.2-0.5c-0.1-0.2,0-0.3,0.2-0.4
	c0.4-0.3,0.7-0.6,0.8-0.8c0.1-0.1,0.1-0.1,0-0.2c-0.1,0-0.2,0-0.4,0.1c-1.7,0.6-3.2,1.5-4.7,2.7c-0.4,0.4-0.7,0.5-0.8,0.5
	c0,0-0.2-0.2-0.4-0.6c-0.1-0.2-0.1-0.4,0.1-0.5c1.3-1.3,2.5-2.3,3.6-3.1c-0.5,0.1-0.9,0.2-1.1,0.3c-0.1,0-0.1,0-0.2,0
	c-0.1,0-0.1-0.1,0-0.2c0,0,0.1-0.1,0.1-0.1c0.4-0.1,0.9-0.3,1.6-0.6c0.2-0.1,0.4-0.1,0.5-0.1c0.1,0.1,0.2,0.2,0.4,0.5
	c0.1,0.2,0,0.3-0.1,0.3c-0.2,0.1-0.7,0.4-1.4,1c-0.7,0.6-1.3,1.1-1.7,1.4c1.5-0.9,2.9-1.7,4.3-2.2c0.3-0.1,0.5-0.1,0.5-0.1
	c0.1,0.1,0.2,0.2,0.2,0.4c0.2,0.1,0.3,0.2,0.3,0.3C26.1,117,26,117.1,25.9,117.2z M20.9,114.1c0.1-0.2,0.2-0.3,0.1-0.3
	c0,0-0.1-0.1-0.3-0.1c-0.7,0-1.5,0.3-2.4,0.9c0.1,0.1,0.2,0.2,0.4,0.4c0.3,0.3,0.6,0.4,0.9,0.4c0.2,0,0.4-0.2,0.7-0.4
	C20.1,115.1,20.3,114.8,20.9,114.1z M19.4,117.4c-2,0.5-3.2,0.6-3.6,0.2c-0.2-0.2-0.3-0.5-0.4-1c-0.2-0.4-0.2-0.7,0-0.9
	c0,0,0.1-0.1,0.1-0.1c0.5-0.5,1.2-1,1.9-1.5c-0.1-0.2-0.1-0.3,0-0.4c0-0.1,0.1-0.1,0.2,0c0.1,0.1,0.1,0.1,0.2,0.2
	c1-0.5,1.8-0.9,2.4-1c0.4-0.1,0.6-0.1,0.8,0.1c0.1,0.1,0.2,0.3,0.4,0.6c0.1-0.1,0.2-0.2,0.3-0.1c0,0,0.1,0.1,0.3,0.2
	c0.2,0.1,0.2,0.2,0.2,0.3c0,0,0,0-0.1,0.1c-0.1,0-0.1,0.1-0.1,0.1c-0.1,0.1-0.3,0.3-0.4,0.6c-0.2,0.2-0.3,0.4-0.3,0.4
	c-0.4,0.5-0.8,0.8-1.3,0.7c-0.4,0-0.8-0.2-1.1-0.4c-0.2-0.1-0.4-0.4-0.7-0.8c-0.2,0.1-0.4,0.3-0.8,0.6c-0.5,0.4-0.9,0.8-1.1,1.1
	c-0.2,0.2-0.2,0.4-0.1,0.5c0,0,0.1,0.1,0.2,0.1c0.6,0.2,1.7,0.2,3.2,0c0.1,0,0.2,0,0.2,0c0.1,0.1,0.1,0.1,0,0.2
	C19.6,117.3,19.5,117.4,19.4,117.4z M17.5,112.6c-0.6,0.6-1.4,1.2-2.4,1.7c-0.9,0.5-1.6,0.7-2.1,0.7c-0.3,0-0.5-0.1-0.7-0.2
	c-0.2-0.2-0.4-0.6-0.5-1.2c0-0.1,0-0.2,0-0.3c0.1-0.1,0.2-0.1,0.3,0c0,0,0.1,0.1,0.2,0.2c0.1,0.1,0.1,0.2,0.2,0.2
	c0.3,0.3,0.7,0.3,1.3,0.1c0.5-0.1,1-0.4,1.7-0.8c0.8-0.5,1.4-1,1.8-1.5c0.2-0.2,0.2-0.4,0.1-0.5c-0.1-0.1-0.4-0.2-0.7-0.1
	c-2.4,0.1-4.5,0.8-6.5,2c-1.1,0.7-2.1,1.4-2.9,2.2c0,0-0.7,0.7-2,1.9c-0.2,0.2-0.3,0.2-0.4,0.2c-0.1-0.1-0.1-0.3-0.2-0.7
	c0-0.3,0.1-0.5,0.3-0.7c1.9-1.8,4.3-3.6,7.2-5.3c2.3-1.4,3.8-2.2,4.7-2.4c0.5-0.1,0.8-0.1,1,0c0.2,0.1,0.4,0.6,0.6,1.3
	c0,0.1,0,0.2,0,0.2c-0.1,0.1-0.1,0-0.2,0c0,0-0.1-0.1-0.1-0.1c0-0.1-0.1-0.1-0.1-0.1c-0.3-0.2-0.7-0.2-1.3,0
	c-0.4,0.1-0.9,0.3-1.7,0.7c-0.7,0.4-1.3,0.7-1.7,0.9c1.4-0.4,2.8-0.7,4.2-0.7c0.2,0,0.4,0,0.5,0.1c0,0,0.1,0.2,0.2,0.5
	C18.1,111.5,18,112.1,17.5,112.6z M15.1,103c-0.6,0.1-1.7,0.6-3.4,1.8c-1.5,1-2.7,1.8-3.4,2.5c-0.7,0.7-1,1.1-0.8,1.4
	c0,0,0.1,0.1,0.2,0.1c0.1,0.1,0.2,0.1,0.2,0.1c0.1,0.1,0.1,0.1,0,0.2c0,0-0.1,0-0.2,0c-0.3,0-0.8-0.2-1.4-0.4
	c-0.1-0.1-0.2-0.1-0.3-0.2c-0.3-0.4,0.5-1.4,2.6-2.9c-0.9-0.9-1.7-1.7-2.5-2.5l-2.5,0.1c0.2,0.2,0.3,0.2,0.2,0.2
	c0.2,0.2,0.1,0.5-0.2,0.9c-0.1,0.1-0.1,0.2-0.2,0.2c-0.1,0.1-0.2,0.1-0.3,0c0,0-0.1-0.1-0.1-0.2c0-0.1-0.1-0.2-0.1-0.2
	c-0.3-0.3-0.9-0.6-1.7-0.9c-0.3-0.1-0.4-0.1-0.4-0.1c0,0-0.1-0.1-0.1-0.3c0-0.3,0-0.6,0.1-0.8c0.1-0.2,0.3-0.2,0.6-0.1
	c0.4,0.1,0.9,0.2,1.7,0.3c0.8,0.1,1.3,0.2,1.5,0.1c0.3-0.3,0.5-0.5,0.5-0.5c0.2-0.2,0.5-0.2,0.7-0.1c0.2,0.1,0.4,0.3,0.8,0.7
	c2-0.1,3.9-0.3,5.5-0.7c-0.3-0.1-0.7-0.3-1.3-0.7c-0.9-0.6-1.6-1-2-1.2c-0.5-0.3-1-0.3-1.4,0.1c-0.1,0.1-0.2,0.1-0.3,0.2
	c-0.1,0.1-0.2,0.2-0.3,0.1c-0.1-0.1-0.1-0.1,0-0.2c0.3-0.6,0.5-1,0.6-1.2c0.1-0.2,0.2-0.3,0.2-0.3c0.1-0.1,0.3-0.2,0.6-0.1
	c0.4,0.1,0.9,0.4,1.6,1c1,0.9,2,1.5,2.9,2c0.2,0,0.3,0,0.3,0c0,0,0.1,0,0.2-0.1c0.1,0,0.2,0,0.2,0c0.1,0.1,0.1,0.3,0.1,0.7
	c0,0.1-0.1,0.2-0.1,0.3c0,0-0.2,0.1-0.6,0.2c-0.8,0.2-1.8,0.3-2.9,0.4c-1.3,0.2-2.3,0.2-2.9,0.2c0.8,0.9,1.5,1.7,2,2.2
	c0.6-0.4,1.5-1,2.7-1.7c0.6-0.3,1.2-0.7,1.8-1c0.5-0.3,1-0.3,1.7,0.1c0.1,0.1,0.2,0.1,0.2,0.2c0.1,0.1,0.1,0.2,0,0.2
	C15.4,103,15.3,103,15.1,103z"/>
<path class="st0" d="M115.9,92.2c0.1,0,0.1,0,0.2,0c0.1,0.1,0.1,0.1,0,0.2c0,0-0.1,0.1-0.1,0.1c-0.2,0.1-0.4,0.2-0.5,0.3
	c-0.2,0.3-0.2,0.7,0.1,1.4c1,2.6,2.9,5.3,5.6,8.2c0-0.2-0.1-0.5-0.2-0.8c-0.1-0.2-0.1-0.3,0-0.4c0.1-0.1,0.2-0.1,0.2,0.1
	c0.3,0.8,0.7,1.5,1.2,2.2c0.1,0.2,0.1,0.3,0.1,0.4c0,0-0.1,0.1-0.2,0.1c-0.3,0.1-0.5,0.2-0.5,0.2c-0.1,0-0.3,0-0.4-0.1
	c-0.1-0.1-0.1-0.1-0.2-0.2c-0.8-0.9-1.4-1.6-1.8-2.1c0.3,0.9,0.5,1.8,0.7,2.7c0.2,1,0.3,1.6,0.3,2c0,0.3-0.1,0.4-0.1,0.5
	c-0.1,0.1-0.2,0.1-0.4,0.2c-0.4,0.1-0.7,0.1-0.9,0c0,0-0.1-0.1-0.1-0.1c-0.6-0.6-1.1-1.4-1.5-2.5c-0.5-1.1-0.8-2.2-0.9-3.2
	c0-0.3,0-0.6,0.1-0.7c0.1-0.2,0.6-0.3,1.3-0.4c0.1,0,0.1,0,0.2,0c0.1,0,0.1,0.1,0,0.2c0,0-0.1,0.1-0.1,0.1c-0.3,0.2-0.5,0.4-0.5,0.7
	c0,0.6,0.2,1.4,0.6,2.5c0.4,1.2,0.9,2.1,1.5,2.7c0.1,0.1,0.3,0.2,0.3,0.1c0.1-0.1,0.1-0.4,0.1-0.7c-0.1-0.8-0.3-1.7-0.6-2.8
	c-0.3-1.1-0.6-1.8-0.8-2.3c-0.1-0.2-0.3-0.5-0.4-0.6c-1.2-1.6-2.2-3.1-2.9-4.4c-0.5-1.1-0.8-1.9-0.9-2.4c0-0.2,0-0.4,0.1-0.5
	c0.1-0.1,0.3-0.2,0.5-0.3C115.2,92.4,115.6,92.3,115.9,92.2z M114.5,104.5c-0.2-0.1-0.3-0.2-0.3-0.1c0,0-0.1,0.1-0.1,0.3
	c0,0.7,0.2,1.5,0.7,2.5c0.1-0.1,0.2-0.2,0.4-0.4c0.3-0.3,0.4-0.6,0.4-0.9c0-0.2-0.1-0.5-0.4-0.7
	C115.4,105.4,115.2,105.2,114.5,104.5z M117.7,106.2c0.3,2,0.3,3.3,0,3.6c-0.2,0.2-0.5,0.3-1,0.3c-0.4,0.2-0.7,0.1-0.9-0.1
	c0,0-0.1-0.1-0.1-0.1c-0.5-0.6-0.9-1.2-1.4-2c-0.2,0.1-0.3,0.1-0.4,0c-0.1,0,0-0.1,0-0.2c0.1-0.1,0.1-0.1,0.2-0.1
	c-0.5-1-0.7-1.9-0.8-2.4c-0.1-0.4,0-0.6,0.1-0.8c0.1-0.1,0.3-0.2,0.6-0.3c-0.1-0.1-0.2-0.2-0.1-0.3c0,0,0.1-0.1,0.3-0.3
	c0.2-0.2,0.3-0.2,0.3-0.2c0,0,0,0,0.1,0.1c0,0.1,0.1,0.1,0.1,0.2c0.1,0.1,0.3,0.3,0.5,0.5c0.2,0.2,0.3,0.3,0.4,0.4
	c0.5,0.4,0.7,0.9,0.6,1.3c0,0.4-0.2,0.8-0.5,1.1c-0.1,0.2-0.4,0.4-0.8,0.7c0.1,0.2,0.2,0.5,0.5,0.9c0.3,0.5,0.7,0.9,1,1.2
	c0.2,0.2,0.4,0.2,0.5,0.1c0,0,0.1-0.1,0.1-0.2c0.3-0.6,0.3-1.7,0.3-3.2c0-0.1,0-0.2,0.1-0.2c0.1-0.1,0.1-0.1,0.2,0
	C117.6,106.1,117.7,106.1,117.7,106.2z M111.4,107.8c-0.1-0.1-0.2-0.2-0.3-0.1c0,0-0.1,0.1-0.1,0.3c-0.1,0.7,0.1,1.5,0.6,2.5
	c0.1-0.1,0.2-0.2,0.4-0.4c0.3-0.3,0.5-0.6,0.5-0.9c0-0.2-0.1-0.5-0.4-0.7C112.3,108.6,112.1,108.4,111.4,107.8z M114.5,109.6
	c0.2,2.1,0.2,3.3-0.2,3.6c-0.2,0.2-0.5,0.3-1,0.3c-0.4,0.1-0.7,0.1-0.9-0.1c0,0-0.1-0.1-0.1-0.1c-0.4-0.6-0.9-1.3-1.3-2.1
	c-0.2,0.1-0.3,0.1-0.4,0c-0.1-0.1,0-0.1,0-0.2c0.1-0.1,0.1-0.1,0.2-0.1c-0.4-1.1-0.6-1.9-0.7-2.5c0-0.4,0-0.6,0.2-0.8
	c0.1-0.1,0.3-0.2,0.6-0.3c-0.1-0.1-0.2-0.2-0.1-0.3c0,0,0.1-0.1,0.3-0.3c0.2-0.2,0.3-0.2,0.3-0.2c0,0,0,0.1,0.1,0.1
	c0,0.1,0.1,0.1,0.1,0.2c0.1,0.1,0.3,0.3,0.5,0.5c0.2,0.2,0.3,0.3,0.4,0.4c0.5,0.5,0.7,0.9,0.6,1.3c-0.1,0.4-0.2,0.7-0.5,1
	c-0.2,0.2-0.4,0.4-0.9,0.6c0.1,0.2,0.2,0.5,0.5,0.9c0.3,0.5,0.6,0.9,1,1.3c0.2,0.2,0.4,0.2,0.5,0.1c0,0,0.1-0.1,0.1-0.2
	c0.3-0.6,0.4-1.6,0.4-3.2c0-0.1,0-0.2,0.1-0.2c0.1-0.1,0.1-0.1,0.2,0C114.5,109.4,114.5,109.5,114.5,109.6z M107.4,105.8
	c0.2,0,0.3,0,0.3,0.1c0,0.1,0,0.1-0.1,0.2c0,0,0,0-0.1,0.1c0,0-0.1,0-0.1,0.1c-0.2,0.1-0.2,0.4-0.1,1c0.1,0.5,0.3,1.3,0.8,2.6
	c0,0.1,0.1,0.2,0.1,0.2c0,0,0.1,0,0.2-0.1c0.3-0.2,0.6-0.4,0.9-0.8c0.1-0.1,0.2-0.1,0.4,0c0.1,0.1,0.1,0.2,0,0.3
	c-0.1,0.1-0.5,0.5-1.3,1.2c0.7,1.8,1.4,3.3,2.1,4.3c0,0.1,0.1,0.1,0.1,0.1c0.1,0.1,0.2,0.2,0.3,0.1c0.1-0.1,0.2-0.6,0.3-1.6
	c0-0.1,0-0.2,0.1-0.3c0.1,0,0.1,0,0.2,0c0.1,0,0.1,0.1,0.1,0.2c0,0.7,0,1.3-0.1,1.9c0,0.2-0.1,0.4-0.2,0.5c-0.1,0.1-0.3,0.1-0.6,0.1
	c-0.3,0.1-0.5,0.1-0.6-0.1c0,0,0-0.1-0.1-0.1c-0.7-1.2-1.5-2.7-2.3-4.6c-0.2,0.1-0.5,0.3-0.6,0.4c-0.1,0.1-0.2,0-0.2-0.1
	c-0.1-0.1-0.1-0.2,0-0.3c0.1-0.1,0.2-0.3,0.3-0.5c0.1-0.2,0.2-0.3,0.2-0.5c-0.7-1.7-1-2.9-1.1-3.5c0-0.3,0-0.6,0.2-0.7
	C106.7,106,106.9,105.9,107.4,105.8z M108,114.7c0,0.6,0.1,1.4,0.3,2.4c0.1,0.2,0.1,0.5,0.2,0.7c0,0.2,0,0.3-0.1,0.4
	c-0.1,0.1-0.2,0.1-0.4,0.2c-0.2,0.1-0.3,0-0.4,0c0,0,0-0.1-0.1-0.3c-0.1-0.8-0.4-1.6-0.8-2.6c-0.4-1-0.8-1.8-1.2-2.2
	c-0.1-0.2-0.3-0.2-0.3-0.2c-0.1,0-0.1,0.2-0.1,0.3c-0.3,1.8-0.2,3.9,0.3,6.2c0.1,0.3,0,0.5-0.1,0.6c-0.1,0.1-0.3,0.1-0.6,0.2
	c-0.1,0-0.2,0-0.2,0c0,0,0-0.1-0.1-0.2c-0.2-0.7-0.4-1.6-0.8-2.6c-0.4-1.1-0.8-1.9-1.1-2.4c-0.1-0.2-0.2-0.2-0.2-0.2
	c0,0,0,0.1-0.1,0.3c0,0.2-0.1,0.5-0.2,0.8c0,0.1,0,0.1-0.1,0.2c-0.1,0-0.1,0-0.1,0c0,0,0-0.1,0-0.2c0-0.4,0-0.8,0.1-1.4
	c0-0.1,0.1-0.2,0.1-0.3c0.1-0.1,0.2-0.1,0.4,0c0.4-0.2,0.7-0.1,0.8,0.1c0.3,0.5,0.7,1.5,1.1,3c-0.1-0.8-0.2-1.7-0.1-2.7
	c0-1.1,0.1-1.8,0.3-2.1c0.1-0.2,0.2-0.3,0.2-0.3c0.1,0,0.2-0.1,0.4-0.1c0.4-0.1,0.8-0.1,1,0.2c0.2,0.3,0.5,0.8,0.8,1.6
	c0.3,0.6,0.5,1.1,0.6,1.5c0-0.2,0-0.6,0-1c0-0.1,0-0.1,0.1-0.1C107.9,114.5,107.9,114.6,108,114.7C108,114.7,108,114.7,108,114.7z
	 M101.5,116.5c0.3,1.4,0.6,2.5,0.9,3.4c0-0.1,0.1-0.3,0.1-0.4c0-0.2,0.1-0.3,0.1-0.4c0-0.1,0.1-0.2,0.1-0.2c0.1,0,0.1,0,0.2,0
	c0,0,0,0.1,0,0.2c0,0.9,0.1,1.7,0.3,2.4c0.1,0.2,0.1,0.3,0,0.4c-0.1,0-0.3,0.1-0.6,0c-0.2,0-0.3,0-0.3-0.1c-0.1,0-0.1-0.1-0.2-0.3
	c-0.5-1.3-0.8-2.3-1-3.3c0,0.9-0.1,1.9-0.3,3.1c-0.2,1-0.4,1.7-0.5,2c-0.1,0.2-0.2,0.4-0.3,0.5c-0.1,0.1-0.2,0.1-0.5,0
	c-0.3,0-0.6-0.1-0.7-0.4c0-0.1-0.1-0.1-0.1-0.2c-0.3-0.7-0.5-1.7-0.5-2.8c0-1.2,0.1-2.3,0.4-3.3c0.1-0.3,0.2-0.5,0.4-0.6
	c0.2-0.1,0.6-0.1,1.3,0.1c0.1,0,0.1,0,0.1,0.1c0,0.1,0,0.1-0.1,0.2c0,0-0.1,0-0.1,0c-0.4,0.1-0.7,0.2-0.8,0.5
	c-0.2,0.6-0.4,1.4-0.4,2.5c-0.1,1.3,0.1,2.3,0.4,3.1c0,0,0,0.1,0,0.1c0.1,0.1,0.1,0.1,0.2,0.1c0.2-0.1,0.3-0.3,0.4-0.6
	c0.2-0.8,0.4-1.7,0.5-2.8c0.1-1.1,0.2-1.9,0.1-2.4c-0.1-0.4-0.1-0.6-0.1-0.8c-0.1-0.2-0.1-0.4,0-0.4c0.1,0,0.3,0,0.6,0
	c0.1,0,0.2,0,0.3,0.1C101.5,116.2,101.5,116.3,101.5,116.5z M96.9,118.6c0.3,0.6,0.5,1.2,0.6,1.9c0,0.2,0,0.3-0.1,0.4
	c-0.1,0-0.3,0-0.6-0.1c-0.2,0-0.3-0.2-0.3-0.4c-0.1-0.5-0.2-0.9-0.3-1.1c0-0.1-0.1-0.1-0.1-0.1c-0.1,0-0.1,0.2-0.2,0.4
	c-0.4,1.8-0.4,3.5-0.1,5.4c0.1,0.6,0.1,0.9,0,0.9c0,0-0.3,0-0.7,0c-0.2,0-0.3-0.1-0.4-0.4c-0.4-1.8-0.7-3.4-0.8-4.7
	c-0.2,0.5-0.3,0.9-0.3,1.1c0,0.1,0,0.1-0.1,0.2c-0.1,0-0.1,0-0.2,0c0,0,0-0.1,0-0.2c0.1-0.4,0.2-1,0.3-1.7c0-0.3,0.1-0.4,0.2-0.5
	c0.1,0,0.3-0.1,0.6,0c0.2,0,0.3,0.1,0.2,0.3c0,0.2,0,0.8,0.1,1.7c0.1,0.9,0.2,1.7,0.3,2.2c0-1.7,0.1-3.4,0.4-4.9
	c0.1-0.3,0.1-0.4,0.2-0.5c0.1,0,0.2,0,0.4,0c0.2-0.1,0.4-0.1,0.4-0.1C96.8,118.3,96.9,118.4,96.9,118.6z M92.3,121.6
	c0.1,1.4,0.2,2.6,0.4,3.5c0-0.1,0.1-0.2,0.2-0.4c0.1-0.2,0.1-0.3,0.1-0.3c0-0.1,0.1-0.2,0.2-0.2c0.1,0,0.1,0,0.2,0.1
	c0,0,0,0.1,0,0.2c-0.2,0.9-0.2,1.7,0,2.4c0,0.2,0,0.3-0.1,0.4c-0.1,0-0.3,0-0.6,0c-0.2,0-0.3-0.1-0.3-0.1c0,0-0.1-0.1-0.1-0.3
	c-0.3-1.3-0.5-2.4-0.5-3.4c-0.1,0.9-0.4,1.9-0.8,3c-0.3,1-0.6,1.6-0.8,2c-0.1,0.2-0.3,0.4-0.4,0.4c-0.1,0-0.3,0-0.5,0
	c-0.3,0-0.5-0.2-0.7-0.5c0-0.1,0-0.1-0.1-0.2c-0.2-0.7-0.3-1.7-0.1-2.9c0.1-1.2,0.4-2.2,0.8-3.2c0.1-0.3,0.3-0.5,0.5-0.6
	c0.2-0.1,0.6,0,1.3,0.3c0.1,0,0.1,0.1,0.1,0.1c0,0.1,0,0.1-0.1,0.2c0,0-0.1,0-0.1,0c-0.4,0-0.7,0.1-0.8,0.4
	c-0.3,0.5-0.6,1.3-0.8,2.4c-0.2,1.2-0.2,2.3,0,3.1c0,0,0,0.1,0,0.1c0.1,0.1,0.1,0.2,0.2,0.1c0.2-0.1,0.3-0.3,0.4-0.6
	c0.3-0.8,0.6-1.7,0.9-2.7c0.3-1.1,0.4-1.9,0.4-2.4c0-0.4,0-0.6,0-0.8c0-0.2,0-0.4,0.1-0.4c0.1,0,0.3,0,0.6,0.1
	c0.1,0,0.2,0.1,0.3,0.1C92.2,121.4,92.3,121.5,92.3,121.6z M87.2,123.3c-0.3,1.4-0.3,3.1-0.1,4.8c0.1-0.3,0.1-0.7,0.2-1.1
	c0-0.1,0-0.1,0.1-0.1c0.1,0,0.1,0,0.2,0.1c0,0,0,0.1,0,0.1c-0.1,0.8-0.1,1.5-0.1,1.9c0,0.3,0,0.4-0.1,0.4c-0.1,0-0.3,0-0.7-0.1
	c-0.2-0.1-0.3-0.2-0.3-0.5c-0.1-1.2-0.2-2.2-0.1-3.1c-0.5,1.9-0.9,3.3-1.3,4.2c-0.1,0.2-0.2,0.3-0.4,0.4c-0.1,0-0.3,0-0.6,0
	c-0.4,0-0.6-0.1-0.7-0.4c0-0.1,0-0.1,0-0.2c-0.3-1.5-0.4-2.7-0.3-3.8c-0.1,0.1-0.2,0.3-0.3,0.5c0,0.1-0.1,0.1-0.1,0.1
	c-0.1,0-0.1-0.1,0-0.2c0.1-0.5,0.2-0.8,0.2-0.9c0-0.4,0.1-0.8,0.2-1.1c0.1-0.1,0.1-0.2,0.2-0.3c0.1,0,0.4,0,0.7,0.1
	c0.1,0,0.1,0.1,0.1,0.1c0,0,0,0.1-0.1,0.3c-0.1,0.5-0.2,1.2-0.2,2.3c0,1.1,0.1,2,0.3,2.7c0.1,0.2,0.1,0.3,0.2,0.3
	c0.1,0,0.2-0.2,0.3-0.4c0.3-0.5,0.6-1.5,0.9-2.9c0.3-1.2,0.5-2,0.6-2.3c0.1-0.6,0.2-0.9,0.3-1.1c0.1-0.1,0.1-0.1,0.2-0.2
	c0.1,0,0.2,0,0.5,0c0.2,0,0.4,0.1,0.4,0.1c0,0,0,0,0,0.1C87.2,123.2,87.2,123.3,87.2,123.3z M81.6,125.5c0.2,0,0.3,0.1,0.3,0.2
	c0,0.1-0.1,0.2-0.3,0.3c-0.3,0.1-0.5,0.3-0.6,0.4c0,0.1,0,0.4-0.1,0.9c0,2.1-0.2,3.9-0.4,5.4c-0.1,0.5-0.3,0.8-0.6,0.8
	c-0.3,0.1-0.9-0.1-1.8-0.4c-0.1,0-0.1-0.1-0.2-0.2c0-0.1,0-0.2,0.2-0.2c0.1,0,0.2,0,0.3,0c0.1,0,0.3,0,0.4,0
	c0.3-0.1,0.5-0.3,0.6-0.6c0.4-0.9,0.6-2.5,0.7-4.8c-0.5,0.9-1.1,1.7-1.7,2.4c-0.9,1-1.7,1.6-2.3,1.8c-0.4,0.1-0.7,0-1-0.2
	c-0.5-0.2-0.8-0.3-1-0.5c-0.3-0.2-0.5-0.6-0.5-1c-0.2-1.1,0-2.4,0.5-3.9c0.4-1.3,1-2.4,1.8-3.5c0.7-1,1.3-1.6,1.8-1.7
	c0.3-0.1,0.7,0,1.3,0.3c0-0.3,0-0.4,0.1-0.5c0.1,0,0.3,0,0.6,0.1c0.1,0,0.2,0.1,0.2,0.1c0.1,0.1,0.1,0.3,0.1,0.7
	c0,0.6,0,1.2-0.1,1.8c0,0.2-0.1,0.3-0.3,0.3c-0.1,0-0.3,0-0.6,0c-0.2,0-0.3-0.1-0.3-0.2c0-0.1,0-0.1,0.1-0.2c0,0,0.1,0,0.1,0
	c0.1-0.5,0.1-1.1,0-1.6c0-0.2-0.2-0.3-0.4-0.2c-0.3,0.1-0.5,0.2-0.8,0.4c-0.9,0.7-1.6,1.8-2.3,3.4c-0.7,1.5-1,2.9-0.9,4
	c0,0.2,0,0.3,0.1,0.5c0.1,0.5,0.4,0.9,0.9,1.1c0.1,0,0.3,0.1,0.4,0c0.6-0.1,1.3-0.7,2.2-1.9c0.7-0.8,1.2-1.7,1.7-2.5
	c-1,0.3-1.6,0.5-1.7,0.5c-0.3,0.1-0.5,0.1-0.6,0c-0.1-0.1-0.2-0.2-0.4-0.4c-0.1-0.1-0.1-0.1-0.1-0.2c0-0.1,0-0.1,0.1-0.1
	c0,0,0.2,0,0.5,0.1c0.1,0,0.6-0.1,1.2-0.2c0.6-0.2,1.1-0.3,1.3-0.4c0.1-0.2,0.2-0.3,0.4-0.4C80.7,125.3,81.1,125.4,81.6,125.5z"/>
<linearGradient id="SVGID_1_" gradientUnits="userSpaceOnUse" x1="-71.4946" y1="157.8317" x2="-71.4946" y2="156.8817" gradientTransform="matrix(-63.9134 -55.1724 -196.705 17.9266 26449.5625 -6751.5962)">
	<stop  offset="0" style="stop-color:#000000"/>
	<stop  offset="0.12" style="stop-color:#000000"/>
	<stop  offset="1" style="stop-color:#D1D3D4"/>
	<stop  offset="1" style="stop-color:#D6D6D6"/>
	<stop  offset="1" style="stop-color:#000000"/>
	<stop  offset="1" style="stop-color:#FFFFFF"/>
</linearGradient>
<path class="st1" d="M119.4,1.6c9.9,2.7,17,8.2,15.9,12.4c-1.1,4.1-10,5.3-19.9,2.6c-9.9-2.7-17-8.2-15.9-12.4
	C100.6,0.1,109.5-1.1,119.4,1.6z"/>
<path class="st2" d="M119.4,1.6c9.9,2.7,17,8.2,15.9,12.4c-1.1,4.1-10,5.3-19.9,2.6c-9.9-2.7-17-8.2-15.9-12.4
	C100.6,0.1,109.5-1.1,119.4,1.6z"/>
<path class="st3" d="M119.5,3.9c8.7,2.5,14.8,7,13.7,10.1c-1.1,3.1-9.1,3.7-17.7,1.2c-8.7-2.5-14.8-7-13.7-10.1
	C102.8,1.9,110.8,1.4,119.5,3.9z"/>
<path class="st4" d="M119.5,3.9c8.7,2.5,14.8,7,13.7,10.1c-1.1,3.1-9.1,3.7-17.7,1.2c-8.7-2.5-14.8-7-13.7-10.1
	C102.8,1.9,110.8,1.4,119.5,3.9z"/>
<linearGradient id="SVGID_2_" gradientUnits="userSpaceOnUse" x1="-71.0227" y1="157.8817" x2="-71.0227" y2="156.8817" gradientTransform="matrix(-80.272 126.939 144.814 70.3637 -28481.9297 -2024.4104)">
	<stop  offset="0" style="stop-color:#231F20"/>
	<stop  offset="0.12" style="stop-color:#FFFFFF"/>
	<stop  offset="1" style="stop-color:#D6D6D6"/>
	<stop  offset="1" style="stop-color:#000000"/>
	<stop  offset="1" style="stop-color:#FFFFFF"/>
</linearGradient>
<path class="st5" d="M37.2,101.9c-0.7,2,2,4.6,4.2,3.1L94,19.2c0.1-2.4-2.6-3.3-4.2-2.5L37.2,101.9z"/>
<path class="st6" d="M37.2,101.9c-0.7,2,2,4.6,4.2,3.1L94,19.2c0.1-2.4-2.6-3.3-4.2-2.5L37.2,101.9z"/>
<path class="st7" d="M91.9,16.5c3.1-5,4.3-8.9,8.1-9.4c0.2,0.5,0.4,0.9,0.8,1.3c-1.9,0.5-2.9,0.9-3.8,2.2l-3.8,6.5
	C92.8,16.8,92.4,16.5,91.9,16.5z"/>
<path class="st6" d="M91.9,16.5c3.1-5,4.3-8.9,8.1-9.4c0.2,0.5,0.4,0.9,0.8,1.3c-1.9,0.5-2.9,0.9-3.8,2.2l-3.8,6.5
	C92.8,16.8,92.4,16.5,91.9,16.5z"/>
<g>
	<defs>
		<path id="SVGID_3_" d="M17.8,98.6c-7.2-3,0.7-12.2-5.2-40.3C11,50.6-0.4,35.6,0,21.8c2.6-26.2,21.2-18.9,40.9-9
			c3.9,2.9,28.1-22,39.6,2.1c3,9.8,2.6,25.8-17.4,51.3c-6.5,7.5-5.5,43.5-15.3,34.3c-3.5-2.3-1.3-37.9-7.3-38.7
			C26.9,60.9,30.6,101,17.8,98.6z"/>
	</defs>
	<clipPath id="SVGID_4_">
		<use xlink:href="#SVGID_3_"  style="overflow:visible;"/>
	</clipPath>
	<linearGradient id="SVGID_5_" gradientUnits="userSpaceOnUse" x1="0.1871" y1="52.7594" x2="81.3484" y2="52.7594">
		<stop  offset="0" style="stop-color:#6FAC49"/>
		<stop  offset="1" style="stop-color:#8BCB3F"/>
	</linearGradient>
	<path class="st8" d="M38.7,11.7c0,0,3.3,2.7,7,0c0,0,12.6-6.9,16.1-6.9c0,0,24.8-5.8,18.6,27.8c0,0,0.4,11.4-18,35.1
		c0,0-3.1,5.5-4.4,15.1c0,0-2.9,14.6-4,16.3c0,0-3.1,5.9-6.6,0.8c0,0-1.7-4-2.1-17c0,0-1.3-14.4-2.6-18.1c0,0-0.8-5.3-6.5-1.4
		c0,0-5.3,4.6-6.6,15.2c0,0-4,16.7-6.5,18.1c0,0-6.2,6-8.3-1.9c0,0,1.2-22.4-0.7-28.2c0,0-1.2-13.4-6.7-20.4c0,0-11.6-21.2-5.2-33.7
		c0,0,3.4-11.3,16.7-8.3C18.8,4.1,26.7,5.4,38.7,11.7z"/>
</g>
<g>
	<defs>
		<path id="SVGID_6_" d="M105.7,102.8c5.7-2.4-0.7-9.7,3.8-32.2c1.2-6.2,10.2-18.3,9.8-29.3c-2.3-20.8-17.1-14.9-32.7-6.8
			C83.4,37,64,17.3,55,36.6c-2.3,7.9-1.8,20.6,14.4,40.8c5.2,5.9,4.7,34.6,12.5,27.2c2.8-1.8,0.7-30.3,5.5-30.9
			C98.1,72.9,95.6,104.8,105.7,102.8z"/>
	</defs>
	<clipPath id="SVGID_7_">
		<use xlink:href="#SVGID_6_"  style="overflow:visible;"/>
	</clipPath>
	<linearGradient id="SVGID_8_" gradientUnits="userSpaceOnUse" x1="56.9553" y1="66.502" x2="113.4685" y2="66.502">
		<stop  offset="0" style="stop-color:#6FAC49"/>
		<stop  offset="1" style="stop-color:#8BCB3F"/>
	</linearGradient>
	<path class="st9" d="M97.6,92c0,0,2.3,12.3,8.1,10.8c0,0,2.8-0.7,2.5-4.9c0,0-0.3-5.2-0.3-5.8c0,0-0.6-5.6,0.4-13.8
		c0,0,0.8-6.6,1.1-6.8c0,0,0.1-1.6,1.5-4.7c0,0,3.9-8.7,4.2-8.9c0,0,4.5-9.1,4.3-15.7c0,0-0.2-15.4-11.7-15.1c0,0-4.3-0.6-15.1,4.5
		L87,34.4c0,0-1,0.9-3,0c0,0-9-4.8-11.9-5.3c0,0-15.6-6.1-18.1,12.2c0,0-0.7,12.3,6,22.6c0,0,7.1,11.4,9.3,13.6c0,0,2.3,3.7,3.6,10
		c0,0,2.6,14.6,3.9,15.9c0,0,1.4,3.1,3.3,2.5c0,0,3.1-1.3,2.9-5.5c0,0,0.5-7.7,0.7-9.9c0,0,1-14.9,2.1-15.4c0,0,1.5-3.8,6.1,1
		C92,76,94.4,78.7,97.6,92z"/>
</g>
<polygon class="st10" points="100.5,51.4 100.3,46.2 94.3,46.4 94.1,41.6 100.2,41.4 100,36.2 104.8,36 104.9,41.3 110.9,41.1 
	111.1,45.8 105.1,46 105.2,51.2 "/>
<linearGradient id="SVGID_9_" gradientUnits="userSpaceOnUse" x1="-71.4149" y1="156.9926" x2="-70.5349" y2="156.9926" gradientTransform="matrix(158.176 0 0 -146.789 11243.5664 23135.1758)">
	<stop  offset="0" style="stop-color:#000000"/>
	<stop  offset="1" style="stop-color:#939598"/>
	<stop  offset="1" style="stop-color:#D6D6D6"/>
	<stop  offset="1" style="stop-color:#000000"/>
	<stop  offset="1" style="stop-color:#FFFFFF"/>
</linearGradient>
<path class="st11" d="M67.5,75.2c1.7,9.9,6.4,32.3,13.2,31.5c4.9-0.6,5.2-13.8,5.9-32.6C78.5,77.6,69.7,77.4,67.5,75.2z"/>
<path class="st12" d="M67.5,75.2c1.7,9.9,6.4,32.3,13.2,31.5c4.9-0.6,5.2-13.8,5.9-32.6C78.5,77.6,69.7,77.4,67.5,75.2z"/>
<path class="st7" d="M68.5,82.8c-3.3,4,11.2,0.2,16.4-0.6c-10,3.8-19.6,5.3-20.6,2.6C64.2,83.7,66.8,82.7,68.5,82.8z"/>
<path class="st7" d="M69.7,87.9c-2.5,3.9,10.3,0.3,15.1-0.5c-8.9,3.8-17.7,5.2-18.7,2.4C65.9,88.8,68.1,87.8,69.7,87.9z"/>
<path class="st7" d="M71,93.2c-2.2,4,9.3,0.4,13.6-0.4C77,96.2,69,97.9,67.9,95.1C67.8,94,69.7,93,71,93.2z"/>
<path class="st7" d="M72.9,98.2c-2.1,4.2,7.9,0.4,11.3-0.2c-6.4,3.4-13.2,4.6-13.8,2C70.2,98.9,71.8,98.1,72.9,98.2z"/>
<path class="st7" d="M74.8,102.7c-1.1,3.2,6.2,0.4,8.8-0.1c-4.9,2.8-10.1,3.7-10.6,1.6C72.9,103.3,73.9,102.6,74.8,102.7z"/>
<path class="st7" d="M67.7,77.4C64.3,82,79.5,77.7,85,76.8c-10.6,4.3-20.6,6-21.7,2.9C63.1,78.5,65.9,77.4,67.7,77.4z"/>
<path class="st13" d="M6.5,17.6l-0.4,3.9c-0.2,2.5,0.9,3.8,3.4,4l11.2,0.9c2.5,0.2,3.9-0.9,4.1-3.4l0.4-3.9c0.2-2.5-0.9-3.8-3.4-4
	l-11.2-0.9C8.1,13.9,6.8,15.1,6.5,17.6z"/>
<g>
	<defs>
		
			<rect id="SVGID_10_" x="14.3" y="16.9" transform="matrix(0.1153 -0.9933 0.9933 0.1153 -5.9234 34.0978)" width="3.8" height="7"/>
	</defs>
	<clipPath id="SVGID_11_">
		<use xlink:href="#SVGID_10_"  style="overflow:visible;"/>
	</clipPath>
	
		<linearGradient id="SVGID_12_" gradientUnits="userSpaceOnUse" x1="-71.0349" y1="157.7617" x2="-71.0349" y2="156.8817" gradientTransform="matrix(7.3882 -0.3215 -0.5166 -4.5981 622.3093 721.1985)">
		<stop  offset="0" style="stop-color:#000000"/>
		<stop  offset="1" style="stop-color:#404041"/>
		<stop  offset="1" style="stop-color:#D6D6D6"/>
		<stop  offset="1" style="stop-color:#000000"/>
		<stop  offset="1" style="stop-color:#FFFFFF"/>
	</linearGradient>
	<polygon class="st14" points="12.9,18.1 12.5,21.9 19.4,22.7 19.9,18.9 	"/>
</g>
<g>
	<defs>
		<path id="SVGID_13_" d="M10.4,13.1c-0.4,2.2-1.1,8.3-1.4,12.5c1.2,0,2.3,0.1,3.3,0.3c0.6-3.8,1.2-8.3,1.7-12.7
			C12.8,13.4,11.6,13.3,10.4,13.1z"/>
	</defs>
	<clipPath id="SVGID_14_">
		<use xlink:href="#SVGID_13_"  style="overflow:visible;"/>
	</clipPath>
	
		<linearGradient id="SVGID_15_" gradientUnits="userSpaceOnUse" x1="-71.035" y1="157.8817" x2="-71.035" y2="156.8817" gradientTransform="matrix(4.9328 0.2245 8.610309e-002 -12.8613 348.3003 2059.6318)">
		<stop  offset="0" style="stop-color:#808384"/>
		<stop  offset="0.12" style="stop-color:#FFFFFF"/>
		<stop  offset="1" style="stop-color:#D6D6D6"/>
		<stop  offset="1" style="stop-color:#000000"/>
		<stop  offset="1" style="stop-color:#FFFFFF"/>
	</linearGradient>
	<path class="st15" d="M10.4,13.1c-0.4,2.2-1.1,8.3-1.4,12.5c1.2,0,2.3,0.1,3.3,0.3c0.6-3.8,1.2-8.3,1.7-12.7
		C12.8,13.4,11.6,13.3,10.4,13.1z"/>
</g>
<g>
	<defs>
		<path id="SVGID_16_" d="M19.8,14.4c-0.4,2.2-1.1,8.3-1.4,12.5c1.2,0,2.3,0.1,3.3,0.3c0.6-3.8,1.2-8.3,1.7-12.7
			C22.1,14.7,20.9,14.7,19.8,14.4z"/>
	</defs>
	<clipPath id="SVGID_17_">
		<use xlink:href="#SVGID_16_"  style="overflow:visible;"/>
	</clipPath>
	
		<linearGradient id="SVGID_18_" gradientUnits="userSpaceOnUse" x1="-71.0349" y1="157.8817" x2="-71.0349" y2="156.8817" gradientTransform="matrix(4.9375 0 0 -12.8594 371.528 2044.7003)">
		<stop  offset="0" style="stop-color:#808384"/>
		<stop  offset="0.12" style="stop-color:#FFFFFF"/>
		<stop  offset="1" style="stop-color:#D6D6D6"/>
		<stop  offset="1" style="stop-color:#000000"/>
		<stop  offset="1" style="stop-color:#FFFFFF"/>
	</linearGradient>
	<path class="st16" d="M19.8,14.4c-0.4,2.2-1.1,8.3-1.4,12.5c1.2,0,2.3,0.1,3.3,0.3c0.6-3.8,1.2-8.3,1.7-12.7
		C22.1,14.7,20.9,14.7,19.8,14.4z"/>
</g>
<path class="st10" d="M31.1,20.4l0.1,3.9c0.1,2.5,1.4,3.7,3.8,3.6l11.3-0.5c2.5-0.1,3.7-1.4,3.6-3.9l-0.1-3.9
	c-0.1-2.5-1.4-3.7-3.8-3.6l-11.3,0.5C32.3,16.6,31.1,17.9,31.1,20.4z"/>
<g>
	<defs>
		
			<rect id="SVGID_19_" x="39.1" y="18.5" transform="matrix(-1.018793e-002 -0.9999 0.9999 -1.018793e-002 19.5083 63.25)" width="3.8" height="7"/>
	</defs>
	<clipPath id="SVGID_20_">
		<use xlink:href="#SVGID_19_"  style="overflow:visible;"/>
	</clipPath>
	
		<linearGradient id="SVGID_21_" gradientUnits="userSpaceOnUse" x1="-71.0349" y1="157.7617" x2="-71.0349" y2="156.8817" gradientTransform="matrix(7.0375 -0.2722 -0.4921 -3.8928 618.416 615.295)">
		<stop  offset="0" style="stop-color:#000000"/>
		<stop  offset="1" style="stop-color:#404041"/>
		<stop  offset="1" style="stop-color:#D6D6D6"/>
		<stop  offset="1" style="stop-color:#000000"/>
		<stop  offset="1" style="stop-color:#FFFFFF"/>
	</linearGradient>
	<polygon class="st17" points="37.5,20.1 37.6,23.9 44.6,23.8 44.5,20 	"/>
</g>
<g>
	<defs>
		<path id="SVGID_22_" d="M34.4,15.5c-0.1,2.2,0,8.4,0.1,12.6c1.2-0.2,2.3-0.2,3.3-0.1c0.1-3.9,0.1-8.4,0.1-12.8
			C36.8,15.5,35.6,15.6,34.4,15.5z"/>
	</defs>
	<clipPath id="SVGID_23_">
		<use xlink:href="#SVGID_22_"  style="overflow:visible;"/>
	</clipPath>
	
		<linearGradient id="SVGID_24_" gradientUnits="userSpaceOnUse" x1="-71.0324" y1="157.8817" x2="-71.0324" y2="156.8818" gradientTransform="matrix(3.4844 0 0 -12.8828 283.6888 2049.188)">
		<stop  offset="0" style="stop-color:#808384"/>
		<stop  offset="0.12" style="stop-color:#FFFFFF"/>
		<stop  offset="1" style="stop-color:#D6D6D6"/>
		<stop  offset="1" style="stop-color:#000000"/>
		<stop  offset="1" style="stop-color:#FFFFFF"/>
	</linearGradient>
	<path class="st18" d="M34.4,15.5c-0.1,2.2,0,8.4,0.1,12.6c1.2-0.2,2.3-0.2,3.3-0.1c0.1-3.9,0.1-8.4,0.1-12.8
		C36.8,15.5,35.6,15.6,34.4,15.5z"/>
</g>
<g>
	<defs>
		<path id="SVGID_25_" d="M43.9,15.6c-0.1,2.2,0,8.4,0.1,12.6c1.2-0.2,2.3-0.2,3.3-0.1c0.1-3.9,0.1-8.4,0.1-12.8
			C46.2,15.6,45.1,15.7,43.9,15.6z"/>
	</defs>
	<clipPath id="SVGID_26_">
		<use xlink:href="#SVGID_25_"  style="overflow:visible;"/>
	</clipPath>
	
		<linearGradient id="SVGID_27_" gradientUnits="userSpaceOnUse" x1="-71.0349" y1="157.8817" x2="-71.0349" y2="156.8817" gradientTransform="matrix(3.4838 0.2248 6.081070e-002 -12.8808 283.5173 2064.9688)">
		<stop  offset="0" style="stop-color:#808384"/>
		<stop  offset="0.12" style="stop-color:#FFFFFF"/>
		<stop  offset="1" style="stop-color:#D6D6D6"/>
		<stop  offset="1" style="stop-color:#000000"/>
		<stop  offset="1" style="stop-color:#FFFFFF"/>
	</linearGradient>
	<path class="st19" d="M43.9,15.6c-0.1,2.2,0,8.4,0.1,12.6c1.2-0.2,2.3-0.2,3.3-0.1c0.1-3.9,0.1-8.4,0.1-12.8
		C46.2,15.6,45.1,15.7,43.9,15.6z"/>
</g>
<path class="st20" d="M55.4,18.7l0.8,3.9c0.5,2.5,2,3.5,4.4,2.9l11.2-2.4c2.5-0.5,3.5-2,3-4.5L74,14.8c-0.5-2.5-2-3.5-4.4-2.9
	l-11.2,2.4C55.9,14.7,54.9,16.2,55.4,18.7z"/>
<g>
	<defs>
		
			<rect id="SVGID_28_" x="63.6" y="15.1" transform="matrix(-0.1751 -0.9846 0.9846 -0.1751 58.729 86.4664)" width="3.9" height="7.1"/>
	</defs>
	<clipPath id="SVGID_29_">
		<use xlink:href="#SVGID_28_"  style="overflow:visible;"/>
	</clipPath>
	
		<linearGradient id="SVGID_30_" gradientUnits="userSpaceOnUse" x1="-71.0348" y1="157.7617" x2="-71.0348" y2="156.8817" gradientTransform="matrix(7.6727 -0.3534 -0.5365 -5.0541 695.0541 788.9433)">
		<stop  offset="0" style="stop-color:#000000"/>
		<stop  offset="1" style="stop-color:#404041"/>
		<stop  offset="1" style="stop-color:#D6D6D6"/>
		<stop  offset="1" style="stop-color:#000000"/>
		<stop  offset="1" style="stop-color:#FFFFFF"/>
	</linearGradient>
	<polygon class="st21" points="61.7,17.3 62.4,21.2 69.4,19.9 68.8,16.1 	"/>
</g>
<g>
	<defs>
		<path id="SVGID_31_" d="M57.9,13.3c0.3,2.2,1.4,8.4,2.2,12.6c1.1-0.4,2.2-0.6,3.3-0.6c-0.5-3.9-1.3-8.4-2.1-12.8
			C60.2,12.9,59.1,13.1,57.9,13.3z"/>
	</defs>
	<clipPath id="SVGID_32_">
		<use xlink:href="#SVGID_31_"  style="overflow:visible;"/>
	</clipPath>
	
		<linearGradient id="SVGID_33_" gradientUnits="userSpaceOnUse" x1="-71.0348" y1="157.8817" x2="-71.0348" y2="156.8817" gradientTransform="matrix(5.5187 0.2349 9.632909e-002 -13.455 437.4944 2153.3872)">
		<stop  offset="0" style="stop-color:#808384"/>
		<stop  offset="0.12" style="stop-color:#FFFFFF"/>
		<stop  offset="1" style="stop-color:#D6D6D6"/>
		<stop  offset="1" style="stop-color:#000000"/>
		<stop  offset="1" style="stop-color:#FFFFFF"/>
	</linearGradient>
	<path class="st22" d="M57.9,13.3c0.3,2.2,1.4,8.4,2.2,12.6c1.1-0.4,2.2-0.6,3.3-0.6c-0.5-3.9-1.3-8.4-2.1-12.8
		C60.2,12.9,59.1,13.1,57.9,13.3z"/>
</g>
<g>
	<defs>
		<path id="SVGID_34_" d="M67.3,11.8c0.3,2.2,1.4,8.4,2.2,12.6c1.1-0.4,2.2-0.6,3.3-0.6c-0.5-3.9-1.3-8.4-2.1-12.8
			C69.7,11.4,68.6,11.7,67.3,11.8z"/>
	</defs>
	<clipPath id="SVGID_35_">
		<use xlink:href="#SVGID_34_"  style="overflow:visible;"/>
	</clipPath>
	
		<linearGradient id="SVGID_36_" gradientUnits="userSpaceOnUse" x1="-71.0349" y1="157.8817" x2="-71.0349" y2="156.8817" gradientTransform="matrix(5.5195 0 0 -13.457 462.187 2135.5737)">
		<stop  offset="0" style="stop-color:#808384"/>
		<stop  offset="0.12" style="stop-color:#FFFFFF"/>
		<stop  offset="1" style="stop-color:#D6D6D6"/>
		<stop  offset="1" style="stop-color:#000000"/>
		<stop  offset="1" style="stop-color:#FFFFFF"/>
	</linearGradient>
	<path class="st23" d="M67.3,11.8c0.3,2.2,1.4,8.4,2.2,12.6c1.1-0.4,2.2-0.6,3.3-0.6c-0.5-3.9-1.3-8.4-2.1-12.8
		C69.7,11.4,68.6,11.7,67.3,11.8z"/>
</g>
<path class="st24" d="M0.6,17.4L0.4,19c9.2,1.7,19.5,3,28.8,3.6c8.9,0.4,17.9,0.2,26.7-1c8.5-1.2,16.9-3.6,24.5-6.9l-0.6-1.2
	c-7.2,3.1-15.9,5.3-24,6.7c-8.9,1-17.9,1.3-26.8,0.9C19.1,20.4,10.2,19,0.6,17.4z"/>
</svg>
